{
	"asset":{
		"generator":"Khronos glTF Blender I/O v5.2.39",
		"version":"2.0"
	},
	"scene":0,
	"scenes":[
		{
			"name":"Scene",
			"nodes":[
				0
			]
		}
	],
	"nodes":[
		{
			"mesh":0,
			"name":"Cone"
		}
	],
	"meshes":[
		{
			"name":"Cone",
			"primitives":[
				{
					"attributes":{
						"POSITION":0,
						"NORMAL":1,
						"TEXCOORD_0":2
					},
					"indices":3
				}
			]
		}
	],
	"accessors":[
		{
			"bufferView":0,
			"componentType":5126,
			"count":21,
			"max":[
				0.4755282700061798,
				0.5,
				0.5
			],
			"min":[
				-0.4755282700061798,
				-0.5,
				-0.5
			],
			"type":"VEC3"
		},
		{
			"bufferView":1,
			"componentType":5126,
			"count":21,
			"type":"VEC3"
		},
		{
			"bufferView":2,
			"componentType":5126,
			"count":21,
			"type":"VEC2"
		},
		{
			"bufferView":3,
			"componentType":5123,
			"count":54,
			"type":"SCALAR"
		}
	],
	"bufferViews":[
		{
			"buffer":0,
			"byteLength":252,
			"byteOffset":0,
			"target":34962
		},
		{
			"buffer":0,
			"byteLength":252,
			"byteOffset":252,
			"target":34962
		},
		{
			"buffer":0,
			"byteLength":168,
			"byteOffset":504,
			"target":34962
		},
		{
			"buffer":0,
			"byteLength":108,
			"byteOffset":672,
			"target":34963
		}
	],
	"buffers":[
		{
			"byteLength":780,
			"uri":"cone.bin"
		}
	]
}
